<?xml version="1.0" encoding="utf-8"?>
<!-- Generator: Adobe Illustrator 22.0.1, SVG Export Plug-In . SVG Version: 6.00 Build 0)  -->
<svg version="1.1" id="Layer_1" xmlns="http://www.w3.org/2000/svg" xmlns:xlink="http://www.w3.org/1999/xlink" x="0px" y="0px"
	 viewBox="0 0 730.3 166" style="enable-background:new 0 0 730.3 166;" xml:space="preserve">
<style type="text/css">
	.st0{display:none;}
	.st1{fill:#FFFFFF;}
	.st2{display:none;fill:#FFFFFF;}
	.st3{display:inline;}
	.st4{display:inline;fill:#FFFFFF;}
</style>
<title>logo</title>
<rect x="-94.1" y="-22.3" class="st0" width="863.4" height="211.3"/>
<g>
	<polygon class="st1" points="45.6,26.3 1.9,26.3 6.2,4.1 119.8,4.1 115.5,26.3 71.7,26.3 44.7,162.3 18.6,162.3 	"/>
</g>
<g>
	<path class="st1" d="M108.9,98.6c0-52.1,34.6-97.4,78.8-97.4c35.7,0,57.1,25.5,57.1,66.6c0,52.1-34.6,97.4-78.8,97.4
		C130.3,165.2,108.9,139.7,108.9,98.6z M218,69.6c0-28-10.5-45.9-31.7-45.9c-28.1,0-50.7,36.2-50.7,73c0,28,10.5,45.9,31.7,45.9
		C195.5,142.7,218,106.5,218,69.6L218,69.6z"/>
</g>
<g>
	<polygon class="st1" points="255,91.8 309.7,91.8 305.7,110.8 250.9,110.8 	"/>
</g>
<g>
	<path class="st1" d="M324.7,100.2c0-52.5,34.5-99,85.3-99c19.6,0,33.6,9.8,42,24.3l-18,13.7c-6-9.7-13.8-15.5-25.3-15.5
		c-34.4,0-57.3,37.6-57.3,74.4c0,26.2,10.6,44.8,38.1,44.8c8,0.1,15.8-2.6,22.1-7.5l7.7-37.2h-29.2l4.1-21.4h52.4l-14.2,72.1
		c-13.4,10.6-30,16.3-47.1,16.3C346.7,165.2,324.7,140.2,324.7,100.2z"/>
</g>
<path class="st0" d="M486.8,134.8c-3.2,3.8-6.4,7.6-9.5,11.4l0.6,0.8c2.3-3.2,4.7-6.4,7.1-9.6c1.9-2.5,3.8-4.9,5.8-7.3
	C489.5,131.7,488.1,133.3,486.8,134.8z"/>
<path class="st2" d="M693.4,3.3l-35.3-14l-0.7,0.5l7.1,11.6h-42.7L456.2,157.9c-4,3.8-4.2,10.1-0.4,14.1c2,2.1,4.6,3.1,7.3,3.1
	c2.5,0,4.9-0.9,6.9-2.7L629.7,21.4h34.8l-7.1,11.7l0.7,0.4l35.3-14c12.3-2.7,24.6-5.4,36.8-8.1C717.9,8.7,705.7,6,693.4,3.3z"/>
<g class="st0">
	<g class="st3">
		<path class="st1" d="M571.6,79.3c-3.5,33.3-24.5,63.3-50.2,63.3c-5.2,0-9.7-1.1-13.6-3L489.4,157c8.5,5.3,18.8,8.2,30.7,8.2
			c44.1,0,78.8-45.2,78.8-97.4c0-4.5-0.3-9-0.8-13.5L571.6,79.3z"/>
	</g>
</g>
<g class="st0">
	<path class="st4" d="M492.9,120.2c-2.1-6.6-3.2-14.5-3.2-23.4c0-36.9,22.5-73,50.7-73c15,0,24.6,8.9,29,24L590,28.4
		C580.6,11.1,564,1.2,541.8,1.2c-44.1,0-78.8,45.3-78.8,97.4c0,16.2,3.4,30,9.6,40.7L492.9,120.2z"/>
</g>
<g>
	<path class="st1" d="M565.8,103.8c-8.7,22.2-25.2,38.8-44.2,38.8c-19.4,0-29.8-14.9-31.5-38.8h-26.8c1.8,38,22.8,61.3,56.9,61.4
		c33.5,0,61.5-26,73-61.4H565.8z"/>
</g>
<g>
	<path class="st1" d="M493.5,70.9c7.5-26.2,25.6-47.1,47-47.1c21.3,0,31.7,17.9,31.7,45.8c0,0.4,0,0.9,0,1.3h26.7c0-1,0-2.1,0-3.1
		c0-41-21.4-66.6-57.1-66.6c-36,0-65.7,30.2-75.4,69.7H493.5z"/>
</g>
<path class="st1" d="M645.7,141.8l4.9,0.8l37.5-45.3c0,0,1.2-1.6,4.6-3.3h0c6.8-0.1,13.4-0.4,19.1-0.9c10.8-0.9,18.4-3.4,18.4-5.9v0
	c0-2.5-7.6-5-18.4-5.9c-5.7-0.5-12.3-0.7-19.1-0.9h0c-3.4-1.7-4.6-3.3-4.6-3.3l-37.5-45.3l-4.9,0.8l23.8,47.9h0
	c-14.4,0.3-26.3,0.8-28.2,0.8c-1.3,0-6.2,0.9-11.2,2v0l-9.4-14.3h-2.9l2.1,16.9l0,0c-1.4,0.5-2.4,0.9-2.4,1.2s0.9,0.7,2.4,1.2l0,0
	l-2.1,16.9h2.9l9.4-14.3v0c5,1.1,9.9,2,11.2,2c1.9,0,13.8,0.6,28.2,0.8h0L645.7,141.8z"/>
</svg>
