<?xml version="1.0" encoding="utf-8"?>
<!-- Generator: Adobe Illustrator 22.0.1, SVG Export Plug-In . SVG Version: 6.00 Build 0)  -->
<svg version="1.1" id="Layer_1" xmlns="http://www.w3.org/2000/svg" xmlns:xlink="http://www.w3.org/1999/xlink" x="0px" y="0px"
	 width="1000px" height="1000px" viewBox="0 0 1000 1000" enable-background="new 0 0 1000 1000" xml:space="preserve">
<g>
	<g>
		<path d="M297.6,437.1c4.7-8,7.9-17,9.3-26.8c1.4-9.5,2.1-19.6,2.1-30c0-10.1-0.7-20-2.1-29.6c-1.5-9.8-4.6-18.8-9.3-26.8
			c-4.8-8.1-11.8-14.7-20.8-19.6c-9-4.8-20.9-7.3-35.4-7.3c-14.4,0-26.2,2.5-35.1,7.3c-9,4.9-16,11.5-20.9,19.6
			c-4.8,8-8,17-9.4,26.8c-1.4,9.5-2.1,19.5-2.1,29.6c0,10.4,0.7,20.5,2.1,30c1.5,9.8,4.6,18.9,9.4,26.8c4.9,8.1,11.9,14.7,20.8,19.5
			c8.9,4.8,20.7,7.2,35.2,7.2c14.5,0,26.4-2.4,35.4-7.2C285.8,451.8,292.8,445.2,297.6,437.1z M241.4,441.4
			c-9.5,0-16.9-1.5-22.1-4.4c-5.2-2.9-9.2-7-12.1-12.2c-3-5.4-5-11.8-6.1-19.2c-1.1-7.6-1.7-16.2-1.7-25.3c0-9,0.6-17.3,1.7-24.9
			c1.1-7.3,3.2-13.8,6.1-19.1c2.9-5.2,6.9-9.3,12.1-12.2c5.2-2.9,12.6-4.4,22.1-4.4c9.3,0,16.8,1.5,22.1,4.5
			c5.3,2.9,9.4,7,12.3,12.2c3,5.3,4.9,11.8,5.9,19.1c1,7.6,1.5,16,1.5,25c0,9.1-0.5,17.7-1.5,25.3c-1,7.4-2.9,13.8-5.9,19.2
			c-2.9,5.1-7,9.2-12.3,12.2C258.2,439.9,250.7,441.4,241.4,441.4z"/>
		<path d="M352.4,460.4c3.8-1.9,3.8-7,3.8-8.7V343.5l70.6,108.7c2.4,3.7,5.4,6.3,8.9,7.8c3.6,1.5,7,1.9,10.3,1.1
			c3.3-0.8,6.1-2.8,8.4-5.9c2.2-3,3.4-7,3.4-12V299.3h-16.8c-2.3,0-4.4,1-5.7,2.8c-1.2,1.5-1.7,3.4-1.7,5.6v110.7l-71.1-109.8
			c-2.6-3.8-5.6-6.5-9-7.9c-3.5-1.5-7-1.8-10.3-0.8c-3.3,0.9-6.1,2.9-8.3,5.8c-2.2,2.9-3.2,6.6-3.2,10.9v145.1h15.6
			C348.9,461.7,350.7,461.2,352.4,460.4z"/>
		<path d="M531.7,457.7c0.5-1.5,0.8-2.9,0.8-4.2V341.3l43.6,62.2c3.8,5.1,8.5,7.7,14.1,7.7c5.6,0,10.3-2.6,14.2-7.8l43.6-62.1v120.3
			h15.6c1.2,0,5,0,7-2.7c1.1-1.5,1.6-3.4,1.6-5.9V316.8c0-4.9-1.3-8.9-3.9-11.8c-2.5-2.8-5.5-4.6-8.8-5.4c-3.3-0.8-6.7-0.5-10.1,0.7
			l0,0c-3.4,1.3-6.2,3.5-8.1,6.6l-51.2,75.3l-51.2-75.3c-2-3.1-4.6-5.3-8-6.6c-3.3-1.2-6.6-1.5-10-0.9c-3.5,0.7-6.5,2.6-9,5.5
			c-2.5,3-3.7,7-3.7,12v135.9c0,4.8,3.9,8.7,8.7,8.7h6.9C528.1,461.7,530.8,460.3,531.7,457.7z"/>
		<path d="M825,302.3L825,302.3c-1.4-1.9-3.5-3-6-3h-15.6l-48.3,70.2l-48.8-70.2h-15.1c-2.6,0-4.7,1.1-6.1,3.2
			c-1.3,2.1-1.5,4.6-0.4,7l0.1,0.3l57.9,85.2v66.6h16.3c4.6,0,6.4-2,7.2-3.7c0.7-1.5,1-3.2,1-5.1v-57.7c10.9-15.9,30.2-44.2,58-85
			l0.2-0.3l0.1-0.4C826.9,306.1,826,303.7,825,302.3z"/>
		<path d="M472.1,541.7L472.1,541.7c-1.5-1.6-3.6-2.4-6.3-2.4h-15.1L422,663.4l-34.1-85.7l4.9-13.2l0.2-0.5c0.5-2.7-0.2-5.2-2.1-7
			c-1.6-1.5-3.7-2.3-6-2.3h-13.6l-38.6,106l-28.1-121.4h-13.5c-5.3,0-7.5,2.3-8.4,4.2c-1.1,2.3-1.2,4.8-0.3,7.4l31.2,134.9
			c1.1,4.9,2.9,9,5.5,12c2.9,3.4,6.9,5.2,11.9,5.2c4.8,0,8.7-1.8,11.4-5.3c2.2-2.9,4.2-6.8,5.9-11.4l27.7-75.9l30.6,76
			c1.7,4.7,3.9,8.6,6.6,11.6c3.1,3.4,6.7,5.1,10.9,5.1c5.7,0,9.9-1.8,12.5-5.4c2.2-3,3.9-6.9,5.1-11.8l31.3-135
			C473.7,547.8,474.3,544.1,472.1,541.7z"/>
		<path d="M544.9,549.5c-0.9-2.6-1.8-4.7-3-6.4c-1.2-1.8-2.7-3.3-4.6-4.6c-2.1-1.4-4.5-2.1-7.2-2.1c-2.7,0-5.1,0.7-7.3,2.1
			c-2,1.3-3.6,3-4.6,4.8c-0.9,1.6-1.7,3.6-2.6,6.1l-53.6,142.3c-0.7,1.9-0.9,3.7-0.5,5.4c0.4,1.6,1.7,4.4,7,4.4H486l14.2-39.7h60.2
			l14.2,39.7h16.7c4.6,0,6.4-2,7.2-3.7c0.8-1.9,0.8-4,0.1-6.1L544.9,549.5z M551.4,637.3H509l21.2-60.6L551.4,637.3z"/>
		<path d="M712.6,542.3c-1.3-1.9-3.5-3-6-3H691l-48.3,70.2l-48.8-70.2h-15.1c-2.6,0-4.7,1.1-6.1,3.2c-1.3,2.1-1.5,4.6-0.4,7l0.1,0.3
			l57.9,85.2v66.6h16.3c4.6,0,6.4-2,7.2-3.7c0.7-1.5,1-3.2,1-5.1v-57.7c10.9-15.9,30.2-44.2,58-85l0.2-0.3l0.1-0.4
			C714.5,546.1,713.6,543.7,712.6,542.3L712.6,542.3z"/>
	</g>
	<path d="M826.2,502H802v-3.9h24.2V502z M777.9,502h-24.2v-3.9h24.2V502z M729.6,502h-24.2v-3.9h24.2V502z M681.2,502h-24.2v-3.9
		h24.2V502z M632.9,502h-24.2v-3.9h24.2V502z M584.6,502h-24.2v-3.9h24.2V502z M536.2,502h-24.2v-3.9h24.2V502z M487.9,502h-24.2
		v-3.9h24.2V502z M439.6,502h-24.2v-3.9h24.2V502z M391.3,502h-24.2v-3.9h24.2V502z M342.9,502h-24.2v-3.9h24.2V502z M294.6,502
		h-24.2v-3.9h24.2V502z M246.3,502h-24.2v-3.9h24.2V502z M198,502h-24.2v-3.9H198V502z"/>
	<path d="M482.8,446.2c-1.7,12.1-5.8,21.5-12.5,28.4h12.5h12.5C488.6,467.7,484.5,458.2,482.8,446.2z"/>
	<g>
		<rect x="481.2" y="425.3" width="3.2" height="12.8"/>
		<rect x="481.2" y="322.6" width="3.2" height="12.8"/>
		<rect x="481.2" y="348.3" width="3.2" height="12.8"/>
		<rect x="481.2" y="399.6" width="3.2" height="12.8"/>
		<rect x="481.2" y="297" width="3.2" height="12.8"/>
		<rect x="481.2" y="373.9" width="3.2" height="12.8"/>
	</g>
</g>
</svg>
